<svg width="322" height="307" viewBox="0 0 322 307" fill="none" xmlns="http://www.w3.org/2000/svg">
<path d="M274.2 110.705C269.03 110.303 263.684 109.896 258.689 109.294C255.941 108.965 253.082 108.645 250.189 108.315C235.41 106.658 217.015 104.594 211.496 100.581C206.127 96.6806 198.136 80.0498 191.715 66.6851C190.17 63.467 188.638 60.2838 187.136 57.2359C184.713 52.3172 182.387 47.0162 180.134 41.8845C172.168 23.7275 168.029 15 160.998 15C153.967 15 149.824 23.7275 141.858 41.8845C139.609 47.0162 137.284 52.3172 134.856 57.2359C133.354 60.2838 131.822 63.4724 130.277 66.6851C123.856 80.0498 115.865 96.6806 110.496 100.581C104.977 104.594 86.5822 106.658 71.8027 108.315C68.9045 108.639 66.0509 108.959 63.3033 109.294C58.307 109.895 52.9623 110.302 47.7923 110.705C30.2697 112.062 18.693 112.953 16.3775 120.076C14.2215 126.715 21.3542 133.562 36.3956 147.189C40.7861 151.167 45.3263 155.281 49.4842 159.395C52.1489 162.032 54.9402 164.745 57.7555 167.463C68.6586 178.027 82.222 191.169 84.2524 197.42C85.8124 202.217 85.9487 207.306 84.5188 211.744L69.4872 274.628C66.4634 283.928 68.9784 288.167 71.6191 290.086C73.0054 291.094 74.7062 291.598 76.6733 291.598C82.0768 291.598 89.5436 287.775 101.281 281.538C106.291 278.878 111.471 276.126 116.482 273.809C120.242 272.075 124.176 270.17 128.131 268.251C140.594 262.213 154.72 255.371 161 255.371C167.28 255.371 181.406 262.213 193.869 268.251C197.823 270.17 201.758 272.074 205.518 273.809C210.529 276.126 215.709 278.873 220.719 281.538C232.456 287.774 239.923 291.598 245.327 291.598C247.299 291.598 249 291.09 250.381 290.086C253.022 288.167 255.532 283.928 252.614 274.997L237.374 211.376C236.051 207.306 236.182 202.217 237.748 197.42C239.778 191.169 253.346 178.027 264.244 167.463C267.055 164.74 269.851 162.032 272.516 159.395C276.668 155.286 281.209 151.167 285.604 147.189C300.646 133.562 307.779 126.711 305.622 120.076C303.303 112.958 291.727 112.062 274.2 110.705ZM279.089 140.007C274.617 144.058 269.998 148.245 265.69 152.509C263.054 155.122 260.283 157.806 257.497 160.5C244.025 173.555 231.3 185.882 228.524 194.42C226.314 201.219 226.183 208.303 228.049 213.997L243.289 277.617C243.909 279.536 244.137 280.893 244.191 281.765C240.247 280.941 232.008 276.566 225.263 272.98C220.136 270.256 214.835 267.437 209.582 265.013C205.875 263.298 201.993 261.417 198.093 259.532C183.391 252.409 169.503 245.683 160.998 245.683C152.493 245.683 138.606 252.408 123.904 259.532C120.003 261.422 116.122 263.303 112.41 265.013C107.157 267.437 101.856 270.256 96.7289 272.98C89.9837 276.566 81.7552 280.941 77.8057 281.765C77.869 280.859 78.1113 279.401 78.8035 277.249L93.8352 214.365C95.8077 208.303 95.6714 201.219 93.4619 194.42C90.6849 185.877 77.9598 173.549 64.4891 160.5C61.7032 157.801 58.936 155.122 56.2953 152.509C51.9877 148.245 47.3647 144.058 42.8967 140.007C36.6986 134.396 28.4709 126.938 26.2276 123.294C30.153 121.787 41.0463 120.949 48.5371 120.368C53.8043 119.96 59.2558 119.539 64.4552 118.914C67.1788 118.589 70.0137 118.269 72.8825 117.95C91.2524 115.89 108.6 113.942 116.194 108.423C123.545 103.078 131.056 87.4409 139.013 70.8831C140.544 67.6998 142.061 64.5397 143.549 61.5213C146.068 56.4092 148.438 51.0057 150.73 45.7769C153.982 38.3627 158.304 28.5117 160.994 25.3418C163.683 28.5108 168.005 38.3627 171.257 45.7769C173.55 51.0057 175.918 56.4083 178.439 61.5213C179.927 64.5406 181.443 67.6945 182.975 70.8831C190.931 87.4409 198.442 103.084 205.794 108.423C213.387 113.942 230.735 115.891 249.105 117.95C251.974 118.269 254.809 118.589 257.532 118.914C262.732 119.539 268.183 119.96 273.45 120.368C280.942 120.949 291.83 121.788 295.756 123.294C293.515 126.938 285.286 134.396 279.089 140.007Z" fill="#FF9600" stroke="#FF9600" stroke-width="30"/>
</svg>
